<?xml version="1.0" encoding="UTF-8" standalone="no"?>
<!DOCTYPE svg PUBLIC "-//W3C//DTD SVG 1.1//EN"
 "http://www.w3.org/Graphics/SVG/1.1/DTD/svg11.dtd">
<!-- Generated by graphviz version 2.40.1 (20161225.0304)
 -->
<!-- Title: G Pages: 1 -->
<svg width="1071pt" height="1310pt"
 viewBox="0.00 0.00 1071.40 1310.00" xmlns="http://www.w3.org/2000/svg" xmlns:xlink="http://www.w3.org/1999/xlink">
<g id="graph0" class="graph" transform="scale(1 1) rotate(0) translate(4 1306)">
<title>G</title>
<polygon fill="#ffffff" stroke="transparent" points="-4,4 -4,-1306 1067.3974,-1306 1067.3974,4 -4,4"/>
<!-- Place phone call. -->
<g id="node1" class="node">
<title>Place phone call.</title>
<ellipse fill="none" stroke="#000000" cx="382.3974" cy="-1284" rx="89.8845" ry="18"/>
<text text-anchor="middle" x="382.3974" y="-1280.3" font-family="Times,serif" font-size="14.00" fill="#000000">Place phone call.</text>
</g>
<!-- Home? -->
<g id="node2" class="node">
<title>Home?</title>
<polygon fill="none" stroke="#000000" points="382.3974,-1229 320.7302,-1211 382.3974,-1193 444.0645,-1211 382.3974,-1229"/>
<text text-anchor="middle" x="382.3974" y="-1207.3" font-family="Times,serif" font-size="14.00" fill="#000000">Home?</text>
</g>
<!-- Place phone call.&#45;&gt;Home? -->
<g id="edge1" class="edge">
<title>Place phone call.&#45;&gt;Home?</title>
<path fill="none" stroke="#000000" d="M382.3974,-1265.9551C382.3974,-1257.8828 382.3974,-1248.1764 382.3974,-1239.1817"/>
<polygon fill="#000000" stroke="#000000" points="385.8974,-1239.0903 382.3974,-1229.0904 378.8974,-1239.0904 385.8974,-1239.0903"/>
</g>
<!-- Leave message -->
<g id="node3" class="node">
<title>Leave message</title>
<polygon fill="none" stroke="#000000" points="445.3974,-1142 319.3974,-1142 319.3974,-1106 445.3974,-1106 445.3974,-1142"/>
<text text-anchor="middle" x="382.3974" y="-1120.3" font-family="Times,serif" font-size="14.00" fill="#000000">Leave message</text>
</g>
<!-- Home?&#45;&gt;Leave message -->
<g id="edge2" class="edge">
<title>Home?&#45;&gt;Leave message</title>
<path fill="none" stroke="#000000" d="M382.3974,-1192.9735C382.3974,-1181.1918 382.3974,-1165.5607 382.3974,-1152.1581"/>
<polygon fill="#000000" stroke="#000000" points="385.8974,-1152.0033 382.3974,-1142.0034 378.8974,-1152.0034 385.8974,-1152.0033"/>
<text text-anchor="middle" x="394.8974" y="-1163.8" font-family="Times,serif" font-size="14.00" fill="#000000">Yes</text>
</g>
<!-- Wait for callback -->
<g id="node4" class="node">
<title>Wait for callback</title>
<polygon fill="none" stroke="#000000" points="451.3974,-1069 313.3974,-1069 313.3974,-1033 451.3974,-1033 451.3974,-1069"/>
<text text-anchor="middle" x="382.3974" y="-1047.3" font-family="Times,serif" font-size="14.00" fill="#000000">Wait for callback</text>
</g>
<!-- Leave message&#45;&gt;Wait for callback -->
<g id="edge3" class="edge">
<title>Leave message&#45;&gt;Wait for callback</title>
<path fill="none" stroke="#000000" d="M382.3974,-1105.9551C382.3974,-1097.8828 382.3974,-1088.1764 382.3974,-1079.1817"/>
<polygon fill="#000000" stroke="#000000" points="385.8974,-1079.0903 382.3974,-1069.0904 378.8974,-1079.0904 385.8974,-1079.0903"/>
</g>
<!-- &quot;Would you like to share a meal&quot; -->
<g id="node5" class="node">
<title>&quot;Would you like to share a meal&quot;</title>
<polygon fill="none" stroke="#000000" points="507.8974,-996 256.8974,-996 256.8974,-960 507.8974,-960 507.8974,-996"/>
<text text-anchor="middle" x="382.3974" y="-974.3" font-family="Times,serif" font-size="14.00" fill="#000000">&quot;Would you like to share a meal&quot;</text>
</g>
<!-- Wait for callback&#45;&gt;&quot;Would you like to share a meal&quot; -->
<g id="edge4" class="edge">
<title>Wait for callback&#45;&gt;&quot;Would you like to share a meal&quot;</title>
<path fill="none" stroke="#000000" d="M382.3974,-1032.9551C382.3974,-1024.8828 382.3974,-1015.1764 382.3974,-1006.1817"/>
<polygon fill="#000000" stroke="#000000" points="385.8974,-1006.0903 382.3974,-996.0904 378.8974,-1006.0904 385.8974,-1006.0903"/>
</g>
<!-- &quot;Would you like to share a meal&quot;&#45;&gt;&quot;Would you like to share a meal&quot; -->
<g id="edge5" class="edge">
<title>&quot;Would you like to share a meal&quot;&#45;&gt;&quot;Would you like to share a meal&quot;</title>
<path fill="none" stroke="#000000" d="M508.337,-983.2668C519.1474,-982.1462 525.8974,-980.3906 525.8974,-978 525.8974,-976.4685 523.1272,-975.1976 518.2939,-974.1873"/>
<polygon fill="#000000" stroke="#000000" points="518.7379,-970.7151 508.337,-972.7332 517.7262,-977.6416 518.7379,-970.7151"/>
</g>
<!-- What is the response (A) ? -->
<g id="node6" class="node">
<title>What is the response (A) ?</title>
<polygon fill="none" stroke="#000000" points="382.3974,-923 193.2044,-905 382.3974,-887 571.5903,-905 382.3974,-923"/>
<text text-anchor="middle" x="382.3974" y="-901.3" font-family="Times,serif" font-size="14.00" fill="#000000">What is the response (A) ?</text>
</g>
<!-- &quot;Would you like to share a meal&quot;&#45;&gt;What is the response (A) ? -->
<g id="edge6" class="edge">
<title>&quot;Would you like to share a meal&quot;&#45;&gt;What is the response (A) ?</title>
<path fill="none" stroke="#000000" d="M382.3974,-959.9551C382.3974,-951.8828 382.3974,-942.1764 382.3974,-933.1817"/>
<polygon fill="#000000" stroke="#000000" points="385.8974,-933.0903 382.3974,-923.0904 378.8974,-933.0904 385.8974,-933.0903"/>
</g>
<!-- &quot;Do you enjoy a hot beverage&quot; -->
<g id="node7" class="node">
<title>&quot;Do you enjoy a hot beverage&quot;</title>
<polygon fill="none" stroke="#000000" points="498.8974,-836 265.8974,-836 265.8974,-800 498.8974,-800 498.8974,-836"/>
<text text-anchor="middle" x="382.3974" y="-814.3" font-family="Times,serif" font-size="14.00" fill="#000000">&quot;Do you enjoy a hot beverage&quot;</text>
</g>
<!-- What is the response (A) ?&#45;&gt;&quot;Do you enjoy a hot beverage&quot; -->
<g id="edge7" class="edge">
<title>What is the response (A) ?&#45;&gt;&quot;Do you enjoy a hot beverage&quot;</title>
<path fill="none" stroke="#000000" d="M382.3974,-886.9735C382.3974,-875.1918 382.3974,-859.5607 382.3974,-846.1581"/>
<polygon fill="#000000" stroke="#000000" points="385.8974,-846.0033 382.3974,-836.0034 378.8974,-846.0034 385.8974,-846.0033"/>
<text text-anchor="middle" x="394.8974" y="-857.8" font-family="Times,serif" font-size="14.00" fill="#000000">Yes</text>
</g>
<!-- What is the response (B) ? -->
<g id="node8" class="node">
<title>What is the response (B) ?</title>
<polygon fill="none" stroke="#000000" points="382.3974,-763 193.2044,-745 382.3974,-727 571.5903,-745 382.3974,-763"/>
<text text-anchor="middle" x="382.3974" y="-741.3" font-family="Times,serif" font-size="14.00" fill="#000000">What is the response (B) ?</text>
</g>
<!-- &quot;Do you enjoy a hot beverage&quot;&#45;&gt;What is the response (B) ? -->
<g id="edge8" class="edge">
<title>&quot;Do you enjoy a hot beverage&quot;&#45;&gt;What is the response (B) ?</title>
<path fill="none" stroke="#000000" d="M382.3974,-799.9551C382.3974,-791.8828 382.3974,-782.1764 382.3974,-773.1817"/>
<polygon fill="#000000" stroke="#000000" points="385.8974,-773.0903 382.3974,-763.0904 378.8974,-773.0904 385.8974,-773.0903"/>
</g>
<!-- n = 0 -->
<g id="node9" class="node">
<title>n = 0</title>
<polygon fill="none" stroke="#000000" points="410.3974,-676 354.3974,-676 354.3974,-640 410.3974,-640 410.3974,-676"/>
<text text-anchor="middle" x="382.3974" y="-654.3" font-family="Times,serif" font-size="14.00" fill="#000000">n = 0</text>
</g>
<!-- What is the response (B) ?&#45;&gt;n = 0 -->
<g id="edge9" class="edge">
<title>What is the response (B) ?&#45;&gt;n = 0</title>
<path fill="none" stroke="#000000" d="M382.3974,-726.9735C382.3974,-715.1918 382.3974,-699.5607 382.3974,-686.1581"/>
<polygon fill="#000000" stroke="#000000" points="385.8974,-686.0033 382.3974,-676.0034 378.8974,-686.0034 385.8974,-686.0033"/>
<text text-anchor="middle" x="394.8974" y="-697.8" font-family="Times,serif" font-size="14.00" fill="#000000">Yes</text>
</g>
<!-- &quot;recreational activity? tell me one of your interests&quot; -->
<g id="node10" class="node">
<title>&quot;recreational activity? tell me one of your interests&quot;</title>
<polygon fill="none" stroke="#000000" points="577.3974,-603 187.3974,-603 187.3974,-567 577.3974,-567 577.3974,-603"/>
<text text-anchor="middle" x="382.3974" y="-581.3" font-family="Times,serif" font-size="14.00" fill="#000000">&quot;recreational activity? tell me one of your interests&quot;</text>
</g>
<!-- n = 0&#45;&gt;&quot;recreational activity? tell me one of your interests&quot; -->
<g id="edge10" class="edge">
<title>n = 0&#45;&gt;&quot;recreational activity? tell me one of your interests&quot;</title>
<path fill="none" stroke="#000000" d="M382.3974,-639.9551C382.3974,-631.8828 382.3974,-622.1764 382.3974,-613.1817"/>
<polygon fill="#000000" stroke="#000000" points="385.8974,-613.0903 382.3974,-603.0904 378.8974,-613.0904 385.8974,-613.0903"/>
</g>
<!-- Do I share that interest? -->
<g id="node11" class="node">
<title>Do I share that interest?</title>
<polygon fill="none" stroke="#000000" points="177.3974,-530 .1026,-512 177.3974,-494 354.6921,-512 177.3974,-530"/>
<text text-anchor="middle" x="177.3974" y="-508.3" font-family="Times,serif" font-size="14.00" fill="#000000">Do I share that interest?</text>
</g>
<!-- &quot;recreational activity? tell me one of your interests&quot;&#45;&gt;Do I share that interest? -->
<g id="edge11" class="edge">
<title>&quot;recreational activity? tell me one of your interests&quot;&#45;&gt;Do I share that interest?</title>
<path fill="none" stroke="#000000" d="M331.7232,-566.9551C299.5952,-555.5144 258.2486,-540.7909 226.4397,-529.4639"/>
<polygon fill="#000000" stroke="#000000" points="227.4896,-526.1225 216.895,-526.065 225.1414,-532.7169 227.4896,-526.1225"/>
</g>
<!-- Choose least objectionable interest -->
<g id="node14" class="node">
<title>Choose least objectionable interest</title>
<polygon fill="none" stroke="#000000" points="679.8974,-530 410.8974,-530 410.8974,-494 679.8974,-494 679.8974,-530"/>
<text text-anchor="middle" x="545.3974" y="-508.3" font-family="Times,serif" font-size="14.00" fill="#000000">Choose least objectionable interest</text>
</g>
<!-- &quot;recreational activity? tell me one of your interests&quot;&#45;&gt;Choose least objectionable interest -->
<g id="edge15" class="edge">
<title>&quot;recreational activity? tell me one of your interests&quot;&#45;&gt;Choose least objectionable interest</title>
<path fill="none" stroke="#000000" d="M422.6895,-566.9551C444.73,-557.0841 472.227,-544.7695 495.602,-534.301"/>
<polygon fill="#000000" stroke="#000000" points="497.3079,-537.3721 505.0038,-530.0904 494.4467,-530.9835 497.3079,-537.3721"/>
</g>
<!-- n = n + 1 -->
<g id="node12" class="node">
<title>n = n + 1</title>
<polygon fill="none" stroke="#000000" points="283.3974,-443 197.3974,-443 197.3974,-407 283.3974,-407 283.3974,-443"/>
<text text-anchor="middle" x="240.3974" y="-421.3" font-family="Times,serif" font-size="14.00" fill="#000000">n = n + 1</text>
</g>
<!-- Do I share that interest?&#45;&gt;n = n + 1 -->
<g id="edge12" class="edge">
<title>Do I share that interest?&#45;&gt;n = n + 1</title>
<path fill="none" stroke="#000000" d="M189.5444,-495.2255C198.4867,-482.8766 210.8264,-465.836 221.1109,-451.6337"/>
<polygon fill="#000000" stroke="#000000" points="224.1697,-453.377 227.2001,-443.2248 218.5001,-449.2714 224.1697,-453.377"/>
<text text-anchor="middle" x="225.8974" y="-464.8" font-family="Times,serif" font-size="14.00" fill="#000000">Yes</text>
</g>
<!-- n &gt; 6? -->
<g id="node13" class="node">
<title>n &gt; 6?</title>
<polygon fill="none" stroke="#000000" points="335.3974,-370 277.5834,-352 335.3974,-334 393.2113,-352 335.3974,-370"/>
<text text-anchor="middle" x="335.3974" y="-348.3" font-family="Times,serif" font-size="14.00" fill="#000000">n &gt; 6?</text>
</g>
<!-- n = n + 1&#45;&gt;n &gt; 6? -->
<g id="edge13" class="edge">
<title>n = n + 1&#45;&gt;n &gt; 6?</title>
<path fill="none" stroke="#000000" d="M263.8805,-406.9551C278.0273,-396.0843 296.0311,-382.2499 310.4354,-371.1813"/>
<polygon fill="#000000" stroke="#000000" points="312.6473,-373.8956 318.4441,-365.0273 308.3821,-368.3451 312.6473,-373.8956"/>
</g>
<!-- n &gt; 6?&#45;&gt;&quot;recreational activity? tell me one of your interests&quot; -->
<g id="edge14" class="edge">
<title>n &gt; 6?&#45;&gt;&quot;recreational activity? tell me one of your interests&quot;</title>
<path fill="none" stroke="#000000" d="M338.876,-369.2454C346.9195,-409.1206 366.8671,-508.0095 376.7137,-556.8235"/>
<polygon fill="#000000" stroke="#000000" points="373.301,-557.6064 378.7093,-566.7169 380.1628,-556.2222 373.301,-557.6064"/>
<text text-anchor="middle" x="372.8974" y="-464.8" font-family="Times,serif" font-size="14.00" fill="#000000">Yes</text>
</g>
<!-- Partake in interest -->
<g id="node15" class="node">
<title>Partake in interest</title>
<polygon fill="none" stroke="#000000" points="620.8974,-443 469.8974,-443 469.8974,-407 620.8974,-407 620.8974,-443"/>
<text text-anchor="middle" x="545.3974" y="-421.3" font-family="Times,serif" font-size="14.00" fill="#000000">Partake in interest</text>
</g>
<!-- Choose least objectionable interest&#45;&gt;Partake in interest -->
<g id="edge16" class="edge">
<title>Choose least objectionable interest&#45;&gt;Partake in interest</title>
<path fill="none" stroke="#000000" d="M545.3974,-493.9735C545.3974,-482.1918 545.3974,-466.5607 545.3974,-453.1581"/>
<polygon fill="#000000" stroke="#000000" points="548.8974,-453.0033 545.3974,-443.0034 541.8974,-453.0034 548.8974,-453.0033"/>
</g>
<!-- &quot;Why don&#39;t we do that together&quot; -->
<g id="node16" class="node">
<title>&quot;Why don&#39;t we do that together&quot;</title>
<polygon fill="none" stroke="#000000" points="669.8974,-370 420.8974,-370 420.8974,-334 669.8974,-334 669.8974,-370"/>
<text text-anchor="middle" x="545.3974" y="-348.3" font-family="Times,serif" font-size="14.00" fill="#000000">&quot;Why don&#39;t we do that together&quot;</text>
</g>
<!-- Partake in interest&#45;&gt;&quot;Why don&#39;t we do that together&quot; -->
<g id="edge17" class="edge">
<title>Partake in interest&#45;&gt;&quot;Why don&#39;t we do that together&quot;</title>
<path fill="none" stroke="#000000" d="M539.4816,-406.9551C538.6832,-398.8828 538.4579,-389.1764 538.8056,-380.1817"/>
<polygon fill="#000000" stroke="#000000" points="542.3054,-380.3007 539.4771,-370.0904 535.3208,-379.8359 542.3054,-380.3007"/>
</g>
<!-- Begin friendship. -->
<g id="node17" class="node">
<title>Begin friendship.</title>
<ellipse fill="none" stroke="#000000" cx="778.3974" cy="-352" rx="90.9839" ry="18"/>
<text text-anchor="middle" x="778.3974" y="-348.3" font-family="Times,serif" font-size="14.00" fill="#000000">Begin friendship.</text>
</g>
<!-- Partake in interest&#45;&gt;Begin friendship. -->
<g id="edge19" class="edge">
<title>Partake in interest&#45;&gt;Begin friendship.</title>
<path fill="none" stroke="#000000" d="M602.9929,-406.9551C638.5921,-395.8017 684.1494,-381.5283 719.9127,-370.3235"/>
<polygon fill="#000000" stroke="#000000" points="721.2274,-373.5794 729.7236,-367.2497 719.1345,-366.8996 721.2274,-373.5794"/>
</g>
<!-- &quot;Why don&#39;t we do that together&quot;&#45;&gt;Partake in interest -->
<g id="edge18" class="edge">
<title>&quot;Why don&#39;t we do that together&quot;&#45;&gt;Partake in interest</title>
<path fill="none" stroke="#000000" d="M551.3176,-370.0904C552.1138,-378.1687 552.337,-387.8769 551.9871,-396.8688"/>
<polygon fill="#000000" stroke="#000000" points="548.4877,-396.7439 551.3131,-406.9551 555.4722,-397.2107 548.4877,-396.7439"/>
</g>
<!-- Is it tea? -->
<g id="node18" class="node">
<title>Is it tea?</title>
<polygon fill="none" stroke="#000000" points="474.3974,-297 400.8322,-279 474.3974,-261 547.9625,-279 474.3974,-297"/>
<text text-anchor="middle" x="474.3974" y="-275.3" font-family="Times,serif" font-size="14.00" fill="#000000">Is it tea?</text>
</g>
<!-- Begin friendship.&#45;&gt;Is it tea? -->
<g id="edge20" class="edge">
<title>Begin friendship.&#45;&gt;Is it tea?</title>
<path fill="none" stroke="#000000" d="M711.4562,-339.7852C700.4175,-337.8185 689.0907,-335.8293 678.3974,-334 629.1352,-325.5728 615.5684,-329.3165 567.3974,-316 547.7963,-310.5814 526.6807,-302.3845 509.5316,-295.0819"/>
<polygon fill="#000000" stroke="#000000" points="510.5008,-291.687 499.9343,-290.9134 507.7121,-298.1076 510.5008,-291.687"/>
</g>
<!-- Have cocoa -->
<g id="node22" class="node">
<title>Have cocoa</title>
<polygon fill="none" stroke="#000000" points="709.3974,-297 609.3974,-297 609.3974,-261 709.3974,-261 709.3974,-297"/>
<text text-anchor="middle" x="659.3974" y="-275.3" font-family="Times,serif" font-size="14.00" fill="#000000">Have cocoa</text>
</g>
<!-- Begin friendship.&#45;&gt;Have cocoa -->
<g id="edge25" class="edge">
<title>Begin friendship.&#45;&gt;Have cocoa</title>
<path fill="none" stroke="#000000" d="M744.9965,-335.0688C728.3225,-325.4736 708.3149,-313.3167 691.7864,-302.7775"/>
<polygon fill="#000000" stroke="#000000" points="693.3061,-299.5929 683.0051,-297.1153 689.5127,-305.476 693.3061,-299.5929"/>
</g>
<!-- Have coffee -->
<g id="node23" class="node">
<title>Have coffee</title>
<polygon fill="none" stroke="#000000" points="829.3974,-297 727.3974,-297 727.3974,-261 829.3974,-261 829.3974,-297"/>
<text text-anchor="middle" x="778.3974" y="-275.3" font-family="Times,serif" font-size="14.00" fill="#000000">Have coffee</text>
</g>
<!-- Begin friendship.&#45;&gt;Have coffee -->
<g id="edge27" class="edge">
<title>Begin friendship.&#45;&gt;Have coffee</title>
<path fill="none" stroke="#000000" d="M772.4816,-333.9551C771.6832,-325.8828 771.4579,-316.1764 771.8056,-307.1817"/>
<polygon fill="#000000" stroke="#000000" points="775.3054,-307.3007 772.4771,-297.0904 768.3208,-306.8359 775.3054,-307.3007"/>
</g>
<!-- Have tea -->
<g id="node24" class="node">
<title>Have tea</title>
<polygon fill="none" stroke="#000000" points="928.8974,-297 847.8974,-297 847.8974,-261 928.8974,-261 928.8974,-297"/>
<text text-anchor="middle" x="888.3974" y="-275.3" font-family="Times,serif" font-size="14.00" fill="#000000">Have tea</text>
</g>
<!-- Begin friendship.&#45;&gt;Have tea -->
<g id="edge29" class="edge">
<title>Begin friendship.&#45;&gt;Have tea</title>
<path fill="none" stroke="#000000" d="M799.147,-334.3287C812.554,-324.7871 830.3341,-312.8814 846.5364,-302.561"/>
<polygon fill="#000000" stroke="#000000" points="848.7428,-305.3078 855.3376,-297.0157 845.0112,-299.3853 848.7428,-305.3078"/>
</g>
<!-- Dine together -->
<g id="node25" class="node">
<title>Dine together</title>
<polygon fill="none" stroke="#000000" points="1063.3974,-297 947.3974,-297 947.3974,-261 1063.3974,-261 1063.3974,-297"/>
<text text-anchor="middle" x="1005.3974" y="-275.3" font-family="Times,serif" font-size="14.00" fill="#000000">Dine together</text>
</g>
<!-- Begin friendship.&#45;&gt;Dine together -->
<g id="edge31" class="edge">
<title>Begin friendship.&#45;&gt;Dine together</title>
<path fill="none" stroke="#000000" d="M821.9745,-336.1601C854.6924,-325.2279 900.0158,-310.6089 937.4556,-298.8919"/>
<polygon fill="#000000" stroke="#000000" points="938.7848,-302.1437 947.2892,-295.825 936.7006,-295.4612 938.7848,-302.1437"/>
</g>
<!-- Is it coffee? -->
<g id="node19" class="node">
<title>Is it coffee?</title>
<polygon fill="none" stroke="#000000" points="460.3974,-210 367.7273,-192 460.3974,-174 553.0674,-192 460.3974,-210"/>
<text text-anchor="middle" x="460.3974" y="-188.3" font-family="Times,serif" font-size="14.00" fill="#000000">Is it coffee?</text>
</g>
<!-- Is it tea?&#45;&gt;Is it coffee? -->
<g id="edge21" class="edge">
<title>Is it tea?&#45;&gt;Is it coffee?</title>
<path fill="none" stroke="#000000" d="M471.5642,-261.3943C469.6287,-249.3661 467.0248,-233.1851 464.8184,-219.4737"/>
<polygon fill="#000000" stroke="#000000" points="468.2706,-218.8965 463.2262,-209.5796 461.3595,-220.0086 468.2706,-218.8965"/>
<text text-anchor="middle" x="480.8974" y="-231.8" font-family="Times,serif" font-size="14.00" fill="#000000">Yes</text>
</g>
<!-- Is it cocoa? -->
<g id="node20" class="node">
<title>Is it cocoa?</title>
<polygon fill="none" stroke="#000000" points="462.3974,-123 372.2425,-105 462.3974,-87 552.5522,-105 462.3974,-123"/>
<text text-anchor="middle" x="462.3974" y="-101.3" font-family="Times,serif" font-size="14.00" fill="#000000">Is it cocoa?</text>
</g>
<!-- Is it coffee?&#45;&gt;Is it cocoa? -->
<g id="edge22" class="edge">
<title>Is it coffee?&#45;&gt;Is it cocoa?</title>
<path fill="none" stroke="#000000" d="M460.8118,-173.9735C461.0826,-162.1918 461.4419,-146.5607 461.75,-133.1581"/>
<polygon fill="#000000" stroke="#000000" points="465.2526,-133.0812 461.9835,-123.0034 458.2545,-132.9202 465.2526,-133.0812"/>
<text text-anchor="middle" x="474.8974" y="-144.8" font-family="Times,serif" font-size="14.00" fill="#000000">Yes</text>
</g>
<!-- Have whatever that person said -->
<g id="node21" class="node">
<title>Have whatever that person said</title>
<polygon fill="none" stroke="#000000" points="645.3974,-36 399.3974,-36 399.3974,0 645.3974,0 645.3974,-36"/>
<text text-anchor="middle" x="522.3974" y="-14.3" font-family="Times,serif" font-size="14.00" fill="#000000">Have whatever that person said</text>
</g>
<!-- Is it cocoa?&#45;&gt;Have whatever that person said -->
<g id="edge23" class="edge">
<title>Is it cocoa?&#45;&gt;Have whatever that person said</title>
<path fill="none" stroke="#000000" d="M473.4023,-89.0429C481.9192,-76.6933 493.9061,-59.3123 503.8914,-44.8336"/>
<polygon fill="#000000" stroke="#000000" points="507.005,-46.4838 509.8011,-36.2646 501.2425,-42.5096 507.005,-46.4838"/>
<text text-anchor="middle" x="508.8974" y="-57.8" font-family="Times,serif" font-size="14.00" fill="#000000">Yes</text>
</g>
<!-- Have whatever that person said&#45;&gt;Begin friendship. -->
<g id="edge24" class="edge">
<title>Have whatever that person said&#45;&gt;Begin friendship.</title>
<path fill="none" stroke="#000000" d="M544.3668,-36.3156C561.1413,-52.4612 581.3974,-77.6253 581.3974,-105 581.3974,-279 581.3974,-279 581.3974,-279 581.3974,-305.6233 645.4596,-325.6213 700.5206,-337.8927"/>
<polygon fill="#000000" stroke="#000000" points="699.8106,-341.32 710.3253,-340.0192 701.2944,-334.479 699.8106,-341.32"/>
</g>
<!-- Have cocoa&#45;&gt;Begin friendship. -->
<g id="edge26" class="edge">
<title>Have cocoa&#45;&gt;Begin friendship.</title>
<path fill="none" stroke="#000000" d="M694.8327,-297.105C711.4959,-306.7448 731.1216,-318.7022 747.2162,-328.9938"/>
<polygon fill="#000000" stroke="#000000" points="745.4553,-332.0232 755.7531,-334.5147 749.2567,-326.1452 745.4553,-332.0232"/>
</g>
<!-- Have coffee&#45;&gt;Begin friendship. -->
<g id="edge28" class="edge">
<title>Have coffee&#45;&gt;Begin friendship.</title>
<path fill="none" stroke="#000000" d="M784.3176,-297.0904C785.1138,-305.1687 785.337,-314.8769 784.9871,-323.8688"/>
<polygon fill="#000000" stroke="#000000" points="781.4877,-323.7439 784.3131,-333.9551 788.4722,-324.2107 781.4877,-323.7439"/>
</g>
<!-- Have tea&#45;&gt;Begin friendship. -->
<g id="edge30" class="edge">
<title>Have tea&#45;&gt;Begin friendship.</title>
<path fill="none" stroke="#000000" d="M867.023,-297.1153C853.2245,-306.9121 834.9802,-319.1005 818.5874,-329.5012"/>
<polygon fill="#000000" stroke="#000000" points="816.3225,-326.7902 809.7108,-335.0688 820.0421,-332.7202 816.3225,-326.7902"/>
</g>
<!-- Dine together&#45;&gt;Begin friendship. -->
<g id="edge32" class="edge">
<title>Dine together&#45;&gt;Begin friendship.</title>
<path fill="none" stroke="#000000" d="M955.1268,-297.0695C921.176,-308.3456 876.2138,-322.8035 840.1018,-334.0559"/>
<polygon fill="#000000" stroke="#000000" points="838.6805,-330.8323 830.1675,-337.1394 840.7556,-337.5176 838.6805,-330.8323"/>
</g>
</g>
</svg>
