<?xml version="1.0" encoding="UTF-8" standalone="no"?>
<!DOCTYPE svg PUBLIC "-//W3C//DTD SVG 1.1//EN"
 "http://www.w3.org/Graphics/SVG/1.1/DTD/svg11.dtd">
<!-- Generated by graphviz version 2.38.0 (20140413.2041)
 -->
<!-- Title: workflow Pages: 1 -->
<svg width="170pt" height="188pt"
 viewBox="0.00 0.00 170.00 188.00" xmlns="http://www.w3.org/2000/svg" xmlns:xlink="http://www.w3.org/1999/xlink">
<g id="graph0" class="graph" transform="scale(1 1) rotate(0) translate(4 184)">
<title>workflow</title>
<polygon fill="white" stroke="none" points="-4,4 -4,-184 166,-184 166,4 -4,4"/>
<!-- MD -->
<g id="node1" class="node"><title>MD</title>
<ellipse fill="none" stroke="black" cx="36" cy="-144" rx="36" ry="36"/>
<text text-anchor="middle" x="36" y="-139.8" font-family="Times,serif" font-size="14.00">MD</text>
</g>
<!-- HTML -->
<g id="node3" class="node"><title>HTML</title>
<ellipse fill="none" stroke="black" cx="81" cy="-36" rx="36" ry="36"/>
<text text-anchor="middle" x="81" y="-31.8" font-family="Times,serif" font-size="14.00">HTML</text>
</g>
<!-- MD&#45;&gt;HTML -->
<g id="edge1" class="edge"><title>MD&#45;&gt;HTML</title>
<path fill="none" stroke="black" d="M49.746,-110.621C53.9809,-100.645 58.7059,-89.5149 63.1738,-78.9907"/>
<polygon fill="black" stroke="black" points="66.497,-80.119 67.1831,-69.5464 60.0536,-77.3836 66.497,-80.119"/>
</g>
<!-- DOT -->
<g id="node2" class="node"><title>DOT</title>
<ellipse fill="none" stroke="black" cx="126" cy="-144" rx="36" ry="36"/>
<text text-anchor="middle" x="126" y="-139.8" font-family="Times,serif" font-size="14.00">DOT</text>
</g>
<!-- DOT&#45;&gt;HTML -->
<g id="edge2" class="edge"><title>DOT&#45;&gt;HTML</title>
<path fill="none" stroke="black" d="M112.254,-110.621C108.019,-100.645 103.294,-89.5149 98.8262,-78.9907"/>
<polygon fill="black" stroke="black" points="101.946,-77.3836 94.8169,-69.5464 95.503,-80.119 101.946,-77.3836"/>
</g>
</g>
</svg>
