<?xml version="1.0" encoding="UTF-8" standalone="no"?>
<!DOCTYPE svg PUBLIC "-//W3C//DTD SVG 1.1//EN"
 "http://www.w3.org/Graphics/SVG/1.1/DTD/svg11.dtd">
<!-- Generated by graphviz version 2.40.1 (20161225.0304)
 -->
<!-- Title: Layouts Pages: 1 -->
<svg width="337pt" height="246pt"
 viewBox="0.00 0.00 336.65 245.70" xmlns="http://www.w3.org/2000/svg" xmlns:xlink="http://www.w3.org/1999/xlink">
<g id="graph0" class="graph" transform="scale(1 1) rotate(0) translate(4 241.703)">
<title>Layouts</title>
<polygon fill="#ffffff" stroke="transparent" points="-4,4 -4,-241.703 332.648,-241.703 332.648,4 -4,4"/>
<!-- graphviz -->
<g id="node1" class="node">
<title>graphviz</title>
<text text-anchor="middle" x="105.961" y="-104.5649" font-family="Times,serif" font-size="14.00" fill="#000000">graphviz</text>
</g>
<!-- dot -->
<g id="node2" class="node">
<title>dot</title>
<text text-anchor="middle" x="184.4941" y="-58.909" font-family="Times,serif" font-size="14.00" fill="#000000">dot</text>
</g>
<!-- graphviz&#45;&gt;dot -->
<g id="edge1" class="edge">
<title>graphviz&#45;&gt;dot</title>
<path fill="none" stroke="#000000" d="M136.9994,-90.7205C140.8098,-88.5052 144.7284,-86.2271 148.6029,-83.9746"/>
<polygon fill="#000000" stroke="#000000" points="150.6054,-86.859 157.4915,-78.8072 147.0872,-80.8074 150.6054,-86.859"/>
</g>
<!-- neato -->
<g id="node3" class="node">
<title>neato</title>
<text text-anchor="middle" x="105.779" y="-13.8" font-family="Times,serif" font-size="14.00" fill="#000000">neato</text>
</g>
<!-- graphviz&#45;&gt;neato -->
<g id="edge2" class="edge">
<title>graphviz&#45;&gt;neato</title>
<path fill="none" stroke="#000000" d="M105.9242,-90.3972C105.8989,-77.7661 105.8647,-60.745 105.8359,-46.3806"/>
<polygon fill="#000000" stroke="#000000" points="109.3353,-46.0235 105.8152,-36.0306 102.3353,-46.0376 109.3353,-46.0235"/>
</g>
<!-- fdp -->
<g id="node4" class="node">
<title>fdp</title>
<text text-anchor="middle" x="28.14" y="-151.2577" font-family="Times,serif" font-size="14.00" fill="#000000">fdp</text>
</g>
<!-- graphviz&#45;&gt;fdp -->
<g id="edge3" class="edge">
<title>graphviz&#45;&gt;fdp</title>
<path fill="none" stroke="#000000" d="M75.6506,-126.9512C71.8576,-129.227 67.9499,-131.5717 64.0815,-133.8927"/>
<polygon fill="#000000" stroke="#000000" points="61.9735,-131.0758 55.1993,-139.222 65.575,-137.0782 61.9735,-131.0758"/>
</g>
<!-- sfdp -->
<g id="node5" class="node">
<title>sfdp</title>
<text text-anchor="middle" x="185.1366" y="-149.1549" font-family="Times,serif" font-size="14.00" fill="#000000">sfdp</text>
</g>
<!-- graphviz&#45;&gt;sfdp -->
<g id="edge4" class="edge">
<title>graphviz&#45;&gt;sfdp</title>
<path fill="none" stroke="#000000" d="M138.1647,-126.9013C141.7236,-128.9056 145.3649,-130.9563 148.9682,-132.9856"/>
<polygon fill="#000000" stroke="#000000" points="147.3472,-136.0896 157.778,-137.9471 150.7822,-129.9903 147.3472,-136.0896"/>
</g>
<!-- twopi -->
<g id="node6" class="node">
<title>twopi</title>
<text text-anchor="middle" x="107.5417" y="-195.3743" font-family="Times,serif" font-size="14.00" fill="#000000">twopi</text>
</g>
<!-- graphviz&#45;&gt;twopi -->
<g id="edge5" class="edge">
<title>graphviz&#45;&gt;twopi</title>
<path fill="none" stroke="#000000" d="M106.2809,-127.1415C106.5009,-139.7789 106.7973,-156.8083 107.0475,-171.1798"/>
<polygon fill="#000000" stroke="#000000" points="103.5541,-171.5974 107.2277,-181.5349 110.553,-171.4755 103.5541,-171.5974"/>
</g>
<!-- circo -->
<g id="node7" class="node">
<title>circo</title>
<text text-anchor="middle" x="27" y="-59.8857" font-family="Times,serif" font-size="14.00" fill="#000000">circo</text>
</g>
<!-- graphviz&#45;&gt;circo -->
<g id="edge6" class="edge">
<title>graphviz&#45;&gt;circo</title>
<path fill="none" stroke="#000000" d="M73.8446,-90.5921C70.2954,-88.5839 66.6639,-86.529 63.0704,-84.4957"/>
<polygon fill="#000000" stroke="#000000" points="64.7114,-81.4028 54.2845,-79.5243 61.2641,-87.4952 64.7114,-81.4028"/>
</g>
<!-- diagram -->
<g id="node8" class="node">
<title>diagram</title>
<text text-anchor="middle" x="220.9346" y="-215.503" font-family="Times,serif" font-size="14.00" fill="#000000">diagram</text>
</g>
<!-- seqdiag -->
<g id="node9" class="node">
<title>seqdiag</title>
<text text-anchor="middle" x="299.2652" y="-203.8" font-family="Times,serif" font-size="14.00" fill="#000000">seqdiag</text>
</g>
<!-- diagram&#45;&gt;seqdiag -->
<g id="edge7" class="edge">
<title>diagram&#45;&gt;seqdiag</title>
<path fill="none" stroke="#000000" d="M251.8929,-215.0777C254.4747,-214.6919 257.1064,-214.2988 259.7402,-213.9052"/>
<polygon fill="#000000" stroke="#000000" points="260.4356,-217.3403 269.8087,-212.401 259.4012,-210.4171 260.4356,-217.3403"/>
</g>
</g>
</svg>
