<?xml version="1.0" encoding="UTF-8" standalone="no"?>
<!DOCTYPE svg PUBLIC "-//W3C//DTD SVG 1.1//EN"
 "http://www.w3.org/Graphics/SVG/1.1/DTD/svg11.dtd">
<!-- Generated by graphviz version 2.38.0 (20140413.2041)
 -->
<!-- Title: Layouts Pages: 1 -->
<svg width="337pt" height="246pt"
 viewBox="0.00 0.00 336.84 245.76" xmlns="http://www.w3.org/2000/svg" xmlns:xlink="http://www.w3.org/1999/xlink">
<g id="graph0" class="graph" transform="scale(1 1) rotate(0) translate(118.293 127.852)">
<title>Layouts</title>
<polygon fill="white" stroke="none" points="-118.293,117.907 -118.293,-127.852 218.548,-127.852 218.548,117.907 -118.293,117.907"/>
<!-- graphviz -->
<g id="node1" class="node"><title>graphviz</title>
<text text-anchor="middle" x="-8.33218" y="9.34176" font-family="Times,serif" font-size="14.00">graphviz</text>
</g>
<!-- dot -->
<g id="node2" class="node"><title>dot</title>
<text text-anchor="middle" x="70.2009" y="54.9977" font-family="Times,serif" font-size="14.00">dot</text>
</g>
<!-- graphviz&#45;&gt;dot -->
<g id="edge1" class="edge"><title>graphviz&#45;&gt;dot</title>
<path fill="none" stroke="black" d="M22.7062,23.1862C26.5166,25.4014 30.4352,27.6795 34.3097,29.932"/>
<polygon fill="black" stroke="black" points="36.3122,27.0476 43.1983,35.0995 32.794,33.0993 36.3122,27.0476"/>
</g>
<!-- neato -->
<g id="node3" class="node"><title>neato</title>
<text text-anchor="middle" x="-8.51419" y="100.107" font-family="Times,serif" font-size="14.00">neato</text>
</g>
<!-- graphviz&#45;&gt;neato -->
<g id="edge2" class="edge"><title>graphviz&#45;&gt;neato</title>
<path fill="none" stroke="black" d="M-8.36901,23.5094C-8.39434,36.1406 -8.42848,53.1616 -8.45728,67.526"/>
<polygon fill="black" stroke="black" points="-4.95789,67.8832 -8.47804,77.8761 -11.9579,67.8691 -4.95789,67.8832"/>
</g>
<!-- fdp -->
<g id="node4" class="node"><title>fdp</title>
<text text-anchor="middle" x="-86.1532" y="-37.351" font-family="Times,serif" font-size="14.00">fdp</text>
</g>
<!-- graphviz&#45;&gt;fdp -->
<g id="edge3" class="edge"><title>graphviz&#45;&gt;fdp</title>
<path fill="none" stroke="black" d="M-38.6426,-13.0446C-42.4356,-15.3204 -46.3433,-17.665 -50.2117,-19.986"/>
<polygon fill="black" stroke="black" points="-52.3197,-17.1692 -59.0939,-25.3154 -48.7182,-23.1716 -52.3197,-17.1692"/>
</g>
<!-- sfdp -->
<g id="node5" class="node"><title>sfdp</title>
<text text-anchor="middle" x="70.8434" y="-35.2483" font-family="Times,serif" font-size="14.00">sfdp</text>
</g>
<!-- graphviz&#45;&gt;sfdp -->
<g id="edge4" class="edge"><title>graphviz&#45;&gt;sfdp</title>
<path fill="none" stroke="black" d="M23.8715,-12.9947C27.4304,-14.999 31.0717,-17.0497 34.675,-19.079"/>
<polygon fill="black" stroke="black" points="33.054,-22.1829 43.4848,-24.0405 36.489,-16.0837 33.054,-22.1829"/>
</g>
<!-- twopi -->
<g id="node6" class="node"><title>twopi</title>
<text text-anchor="middle" x="-6.75149" y="-81.4677" font-family="Times,serif" font-size="14.00">twopi</text>
</g>
<!-- graphviz&#45;&gt;twopi -->
<g id="edge5" class="edge"><title>graphviz&#45;&gt;twopi</title>
<path fill="none" stroke="black" d="M-8.0123,-13.2349C-7.79233,-25.8723 -7.4959,-42.9017 -7.24574,-57.2732"/>
<polygon fill="black" stroke="black" points="-10.7391,-57.6908 -7.0655,-67.6283 -3.74016,-57.5689 -10.7391,-57.6908"/>
</g>
<!-- circo -->
<g id="node7" class="node"><title>circo</title>
<text text-anchor="middle" x="-87.2932" y="54.021" font-family="Times,serif" font-size="14.00">circo</text>
</g>
<!-- graphviz&#45;&gt;circo -->
<g id="edge6" class="edge"><title>graphviz&#45;&gt;circo</title>
<path fill="none" stroke="black" d="M-40.4487,23.3145C-43.9978,25.3228 -47.6293,27.3776 -51.2229,29.411"/>
<polygon fill="black" stroke="black" points="-49.5818,32.5038 -60.0087,34.3824 -53.0291,26.4115 -49.5818,32.5038"/>
</g>
<!-- diagram -->
<g id="node8" class="node"><title>diagram</title>
<text text-anchor="middle" x="106.835" y="-101.652" font-family="Times,serif" font-size="14.00">diagram</text>
</g>
<!-- seqdiag -->
<g id="node9" class="node"><title>seqdiag</title>
<text text-anchor="middle" x="185.165" y="-89.9485" font-family="Times,serif" font-size="14.00">seqdiag</text>
</g>
<!-- diagram&#45;&gt;seqdiag -->
<g id="edge7" class="edge"><title>diagram&#45;&gt;seqdiag</title>
<path fill="none" stroke="black" d="M137.793,-101.226C140.375,-100.84 143.007,-100.447 145.64,-100.054"/>
<polygon fill="black" stroke="black" points="146.336,-103.489 155.709,-98.5495 145.301,-96.5656 146.336,-103.489"/>
</g>
</g>
</svg>
