<?xml version="1.0" encoding="UTF-8" standalone="no"?>
<!DOCTYPE svg PUBLIC "-//W3C//DTD SVG 1.1//EN"
 "http://www.w3.org/Graphics/SVG/1.1/DTD/svg11.dtd">
<!-- Generated by graphviz version 2.38.0 (20140413.2041)
 -->
<!-- Title: Layouts Pages: 1 -->
<svg width="253pt" height="278pt"
 viewBox="0.00 0.00 252.51 278.08" xmlns="http://www.w3.org/2000/svg" xmlns:xlink="http://www.w3.org/1999/xlink">
<g id="graph0" class="graph" transform="scale(1 1) rotate(0) translate(126.502 138.91)">
<title>Layouts</title>
<polygon fill="white" stroke="none" points="-126.502,139.171 -126.502,-138.91 126.011,-138.91 126.011,139.171 -126.502,139.171"/>
<!-- Graph -->
<g id="node1" class="node"><title>Graph</title>
<ellipse fill="none" stroke="black" cx="-0.362379" cy="0.154655" rx="36" ry="36"/>
<text text-anchor="middle" x="-0.362379" y="4.35465" font-family="Times,serif" font-size="14.00">Graph</text>
</g>
<!-- dot -->
<g id="node2" class="node"><title>dot</title>
<ellipse fill="none" stroke="black" cx="85.31" cy="49.961" rx="36" ry="36"/>
<text text-anchor="middle" x="85.31" y="54.161" font-family="Times,serif" font-size="14.00">dot</text>
</g>
<!-- Graph&#45;&gt;dot -->
<g id="edge1" class="edge"><title>Graph&#45;&gt;dot</title>
<path fill="none" stroke="black" d="M31.0524,18.4179C35.6504,21.091 40.4377,23.8741 45.1807,26.6315"/>
<polygon fill="black" stroke="black" points="47.2992,23.8146 54.1853,31.8664 43.781,29.8663 47.2992,23.8146"/>
</g>
<!-- neato -->
<g id="node3" class="node"><title>neato</title>
<ellipse fill="none" stroke="black" cx="-0.560935" cy="99.1709" rx="36" ry="36"/>
<text text-anchor="middle" x="-0.560935" y="103.371" font-family="Times,serif" font-size="14.00">neato</text>
</g>
<!-- Graph&#45;&gt;neato -->
<g id="edge2" class="edge"><title>Graph&#45;&gt;neato</title>
<path fill="none" stroke="black" d="M-0.434624,36.1819C-0.445574,41.6423 -0.456999,47.3395 -0.468308,52.9791"/>
<polygon fill="black" stroke="black" points="3.03173,53.0116 -0.488412,63.0045 -3.96825,52.9975 3.03173,53.0116"/>
</g>
<!-- fdp -->
<g id="node4" class="node"><title>fdp</title>
<ellipse fill="none" stroke="black" cx="-85.258" cy="-50.783" rx="36" ry="36"/>
<text text-anchor="middle" x="-85.258" y="-46.583" font-family="Times,serif" font-size="14.00">fdp</text>
</g>
<!-- Graph&#45;&gt;fdp -->
<g id="edge3" class="edge"><title>Graph&#45;&gt;fdp</title>
<path fill="none" stroke="black" d="M-31.4923,-18.5234C-35.9909,-21.2226 -40.6725,-24.0315 -45.314,-26.8164"/>
<polygon fill="black" stroke="black" points="-47.3576,-23.9609 -54.1318,-32.1072 -43.7561,-29.9634 -47.3576,-23.9609"/>
</g>
<!-- sfdp -->
<g id="node5" class="node"><title>sfdp</title>
<ellipse fill="none" stroke="black" cx="86.0109" cy="-48.489" rx="36" ry="36"/>
<text text-anchor="middle" x="86.0109" y="-44.289" font-family="Times,serif" font-size="14.00">sfdp</text>
</g>
<!-- Graph&#45;&gt;sfdp -->
<g id="edge4" class="edge"><title>Graph&#45;&gt;sfdp</title>
<path fill="none" stroke="black" d="M31.3094,-17.6822C35.945,-20.2929 40.7715,-23.0111 45.5533,-25.7041"/>
<polygon fill="black" stroke="black" points="44.2009,-28.9593 54.6316,-30.8168 47.6359,-22.86 44.2009,-28.9593"/>
</g>
<!-- twopi -->
<g id="node6" class="node"><title>twopi</title>
<ellipse fill="none" stroke="black" cx="1.362" cy="-98.9102" rx="36" ry="36"/>
<text text-anchor="middle" x="1.362" y="-94.7102" font-family="Times,serif" font-size="14.00">twopi</text>
</g>
<!-- Graph&#45;&gt;twopi -->
<g id="edge5" class="edge"><title>Graph&#45;&gt;twopi</title>
<path fill="none" stroke="black" d="M0.265038,-35.8903C0.360132,-41.3534 0.45935,-47.0534 0.557564,-52.6958"/>
<polygon fill="black" stroke="black" points="-2.94145,-52.7886 0.732157,-62.7261 4.05749,-52.6667 -2.94145,-52.7886"/>
</g>
<!-- circo -->
<g id="node7" class="node"><title>circo</title>
<ellipse fill="none" stroke="black" cx="-86.5017" cy="48.8956" rx="36" ry="36"/>
<text text-anchor="middle" x="-86.5017" y="53.0956" font-family="Times,serif" font-size="14.00">circo</text>
</g>
<!-- Graph&#45;&gt;circo -->
<g id="edge6" class="edge"><title>Graph&#45;&gt;circo</title>
<path fill="none" stroke="black" d="M-31.9484,18.0272C-36.5129,20.61 -41.263,23.2978 -45.9725,25.9626"/>
<polygon fill="black" stroke="black" points="-44.4925,29.1466 -54.9195,31.0252 -47.9399,23.0543 -44.4925,29.1466"/>
</g>
</g>
</svg>
