<?xml version="1.0" encoding="UTF-8" standalone="no"?>
<!DOCTYPE svg PUBLIC "-//W3C//DTD SVG 1.1//EN"
 "http://www.w3.org/Graphics/SVG/1.1/DTD/svg11.dtd">
<!-- Generated by graphviz version 2.38.0 (20140413.2041)
 -->
<!-- Title: Layouts Pages: 1 -->
<svg width="235pt" height="242pt"
 viewBox="0.00 0.00 234.51 242.08" xmlns="http://www.w3.org/2000/svg" xmlns:xlink="http://www.w3.org/1999/xlink">
<g id="graph0" class="graph" transform="scale(1 1) rotate(0) translate(117.502 120.91)">
<title>Layouts</title>
<polygon fill="white" stroke="none" points="-117.502,121.171 -117.502,-120.91 117.011,-120.91 117.011,121.171 -117.502,121.171"/>
<!-- Graph -->
<g id="node1" class="node"><title>Graph</title>
<text text-anchor="middle" x="-0.362379" y="4.35465" font-family="Times,serif" font-size="14.00">Graph</text>
</g>
<!-- dot -->
<g id="node2" class="node"><title>dot</title>
<text text-anchor="middle" x="85.31" y="54.161" font-family="Times,serif" font-size="14.00">dot</text>
</g>
<!-- Graph&#45;&gt;dot -->
<g id="edge1" class="edge"><title>Graph&#45;&gt;dot</title>
<path fill="none" stroke="black" d="M26.7449,15.9137C33.9328,20.0924 41.8068,24.6701 49.3845,29.0754"/>
<polygon fill="black" stroke="black" points="51.1989,26.0817 58.085,34.1336 47.6807,32.1334 51.1989,26.0817"/>
</g>
<!-- neato -->
<g id="node3" class="node"><title>neato</title>
<text text-anchor="middle" x="-0.560935" y="103.371" font-family="Times,serif" font-size="14.00">neato</text>
</g>
<!-- Graph&#45;&gt;neato -->
<g id="edge2" class="edge"><title>Graph&#45;&gt;neato</title>
<path fill="none" stroke="black" d="M-0.398798,18.3158C-0.428186,32.9712 -0.470059,53.8524 -0.50389,70.7232"/>
<polygon fill="black" stroke="black" points="2.99539,71.132 -0.524748,81.1249 -4.00459,71.1179 2.99539,71.132"/>
</g>
<!-- fdp -->
<g id="node4" class="node"><title>fdp</title>
<text text-anchor="middle" x="-85.258" y="-46.583" font-family="Times,serif" font-size="14.00">fdp</text>
</g>
<!-- Graph&#45;&gt;fdp -->
<g id="edge3" class="edge"><title>Graph&#45;&gt;fdp</title>
<path fill="none" stroke="black" d="M-27.6912,-16.2427C-34.5076,-20.3326 -41.9223,-24.7814 -49.0924,-29.0835"/>
<polygon fill="black" stroke="black" points="-51.2062,-26.2701 -57.9804,-34.4163 -47.6047,-32.2725 -51.2062,-26.2701"/>
</g>
<!-- sfdp -->
<g id="node5" class="node"><title>sfdp</title>
<text text-anchor="middle" x="86.0109" y="-44.289" font-family="Times,serif" font-size="14.00">sfdp</text>
</g>
<!-- Graph&#45;&gt;sfdp -->
<g id="edge4" class="edge"><title>Graph&#45;&gt;sfdp</title>
<path fill="none" stroke="black" d="M26.9667,-15.2365C34.2844,-19.3577 42.3075,-23.8762 50.0161,-28.2175"/>
<polygon fill="black" stroke="black" points="48.4289,-31.3405 58.8597,-33.198 51.8639,-25.2412 48.4289,-31.3405"/>
</g>
<!-- twopi -->
<g id="node6" class="node"><title>twopi</title>
<text text-anchor="middle" x="1.362" y="-94.7102" font-family="Times,serif" font-size="14.00">twopi</text>
</g>
<!-- Graph&#45;&gt;twopi -->
<g id="edge5" class="edge"><title>Graph&#45;&gt;twopi</title>
<path fill="none" stroke="black" d="M-0.0461021,-18.0154C0.209124,-32.678 0.572772,-53.5695 0.866579,-70.4486"/>
<polygon fill="black" stroke="black" points="-2.62588,-70.9178 1.04773,-80.8554 4.37306,-70.7959 -2.62588,-70.9178"/>
</g>
<!-- circo -->
<g id="node7" class="node"><title>circo</title>
<text text-anchor="middle" x="-86.5017" y="53.0956" font-family="Times,serif" font-size="14.00">circo</text>
</g>
<!-- Graph&#45;&gt;circo -->
<g id="edge6" class="edge"><title>Graph&#45;&gt;circo</title>
<path fill="none" stroke="black" d="M-27.6174,15.5766C-34.9153,19.706 -42.9167,24.2335 -50.6043,28.5835"/>
<polygon fill="black" stroke="black" points="-48.997,31.6954 -59.424,33.574 -52.4443,25.6031 -48.997,31.6954"/>
</g>
</g>
</svg>
